{"title":"Geordie Shore S10E04 1080P WEB-DL","uid":11866564,"size":1649601249,"categoryP":"video","categoryS":"hd___tv_shows","magnet":"?xt=urn:btih:d4568dde3ca21332b332e5ce2355117781860872&amp;dn=Geordie+Shore+S10E04+1080P+WEB-DL&amp;tr=udp%3A%2F%2Ftracker.openbittorrent.com%3A80&amp;tr=udp%3A%2F%2Fopen.demonii.com%3A1337&amp;tr=udp%3A%2F%2Ftracker.coppersurfer.tk%3A6969&amp;tr=udp%3A%2F%2Fexodus.desync.com%3A6969","seeders":9,"leechers":0,"uploader":"jmanwf","files":2,"time":1430374836,"description":"Released 28 April 2015\n\nIt's the day that Charlotte's been dreading, Gary introdices his new girlfriend to the family but will Psycho Charlotte put in an appearance? Meanwhile Marnie and Aaron get very flirty!\n\n\n\n\nVideo\nID : 2\nFormat : AVC\nFormat/Info : Advanced Video Codec\nFormat profile : &lt;a class=&quot;__cf_email__&quot; href=&quot;/cdn-cgi/l/email-protection&quot; data-cfemail=&quot;dd95b4bab59d91e9f3ed&quot;&gt;[email&amp;#160;protected]&lt;/a&gt;&lt;script cf-hash='f9e31' type=&quot;text/javascript&quot;&gt;\n/* &lt;![CDATA[ */!function(){try{var t=&quot;currentScript&quot;in document?document.currentScript:function(){for(var t=document.getElementsByTagName(&quot;script&quot;),e=t.length;e--;)if(t[e].getAttribute(&quot;cf-hash&quot;))return t[e]}();if(t&amp;&amp;t.previousSibling){var e,r,n,i,c=t.previousSibling,a=c.getAttribute(&quot;data-cfemail&quot;);if(a){for(e=&quot;&quot;,r=parseInt(a.substr(0,2),16),n=2;a.length-n;n+=2)i=parseInt(a.substr(n,2),16)^r,e+=String.fromCharCode(i);e=document.createTextNode(e),c.parentNode.replaceChild(e,c)}}}catch(u){}}();/* ]]&gt; */&lt;/script&gt;\nFormat settings, CABAC : Yes\nFormat settings, ReFrames : 4 frames\nCodec ID : avc1\nCodec ID/Info : Advanced Video Coding\nDuration : 42mn 1s\nBit rate : 5 103 Kbps\nWidth : 1 920 pixels\nHeight : 1 080 pixels\nDisplay aspect ratio : 16:9\nFrame rate mode : Constant\nFrame rate : 25.000 fps\nColor space : YUV\nChroma subsampling : 4:2:0\nBit depth : 8 bits\nScan type : Progressive\nBits/(Pixel*Frame) : 0.098\nStream size : 1.50 GiB (98%)\nLanguage : English\nEncoded date : UTC 2015-04-29 05:41:04\nTagged date : UTC 2015-04-29 05:43:28\nColor primaries : BT.709\nTransfer characteristics : BT.709\nMatrix coefficients : BT.709\nColor range : Limited\n\nAudio\nID : 1\nFormat : AAC\nFormat/Info : Advanced Audio Codec\nFormat profile : LC\nCodec ID : 40\nDuration : 42mn 1s\nDuration_LastFrame : -19ms\nBit rate mode : Variable\nBit rate : 126 Kbps\nMaximum bit rate : 190 Kbps\nChannel(s) : 2 channels\nChannel positions : Front: L R\nSampling rate : 48.0 KHz\nCompression mode : Lossy\nStream size : 37.8 MiB (2%)\nLanguage : English\nEncoded date : UTC 2015-04-29 05:41:04\nTagged date : UTC 2015-04-29 05:43:28\n\nText\nID : 3-CC1\nFormat : EIA-608\nMuxing mode : Final Cut\nCodec ID : c608\nDuration : 41mn 59s\nBit rate mode : Constant\nStream size : 0.00 Byte (0%)\nLanguage : English\nEncoded date : UTC 2015-04-29 05:41:04\nTagged date : UTC 2015-04-29 05:42:36\n\n\n &lt;a href=&quot;\nhttps://itunes.apple.com/gb/tv-season/geordie-shore-season-10/id979550691&quot; rel=&quot;nofollow&quot; target=&quot;_NEW&quot;&gt;\nhttps://itunes.apple.com/gb/tv-season/geordie-shore-season-10/id979550691&lt;/a&gt;","torrent":{"xt":"urn:btih:d4568dde3ca21332b332e5ce2355117781860872","amp;dn":"Geordie+Shore+S10E04+1080P+WEB-DL","amp;tr":["udp%3A%2F%2Ftracker.openbittorrent.com%3A80","udp%3A%2F%2Fopen.demonii.com%3A1337","udp%3A%2F%2Ftracker.coppersurfer.tk%3A6969","udp%3A%2F%2Fexodus.desync.com%3A6969"],"infoHash":"d4568dde3ca21332b332e5ce2355117781860872","infoHashBuffer":{"type":"Buffer","data":[212,86,141,222,60,162,19,50,179,50,229,206,35,85,17,119,129,134,8,114]},"announce":[],"urlList":[]}}